<svg width="22" height="22" viewBox="0 0 22 22" fill="none" xmlns="http://www.w3.org/2000/svg">
<path d="M10.5516 0.908494C10.735 0.536871 11.265 0.53687 11.4484 0.908493L14.4104 6.91018C14.4832 7.05775 14.624 7.16003 14.7868 7.1837L21.4101 8.14611C21.8202 8.2057 21.984 8.70969 21.6872 8.99896L16.8946 13.6706C16.7767 13.7855 16.723 13.951 16.7508 14.1132L17.8822 20.7097C17.9522 21.1181 17.5235 21.4296 17.1567 21.2368L11.2327 18.1223C11.087 18.0457 10.913 18.0457 10.7673 18.1223L4.84331 21.2368C4.4765 21.4296 4.04778 21.1181 4.11784 20.7097L5.24923 14.1132C5.27704 13.951 5.22327 13.7855 5.10543 13.6706L0.312798 8.99896C0.016039 8.70969 0.179793 8.2057 0.589904 8.14611L7.21315 7.1837C7.37601 7.16003 7.51679 7.05775 7.58962 6.91018L10.5516 0.908494Z" fill="#2563EB"/>
<path d="M10.5516 0.908494C10.735 0.536871 11.265 0.53687 11.4484 0.908493L14.4104 6.91018C14.4832 7.05775 14.624 7.16003 14.7868 7.1837L21.4101 8.14611C21.8202 8.2057 21.984 8.70969 21.6872 8.99896L16.8946 13.6706C16.7767 13.7855 16.723 13.951 16.7508 14.1132L17.8822 20.7097C17.9522 21.1181 17.5235 21.4296 17.1567 21.2368L11.2327 18.1223C11.087 18.0457 10.913 18.0457 10.7673 18.1223L4.84331 21.2368C4.4765 21.4296 4.04778 21.1181 4.11784 20.7097L5.24923 14.1132C5.27704 13.951 5.22327 13.7855 5.10543 13.6706L0.312798 8.99896C0.016039 8.70969 0.179793 8.2057 0.589904 8.14611L7.21315 7.1837C7.37601 7.16003 7.51679 7.05775 7.58962 6.91018L10.5516 0.908494Z" fill="url(#paint0_linear_2711_3770)"/>
<defs>
<linearGradient id="paint0_linear_2711_3770" x1="11" y1="24" x2="11" y2="0" gradientUnits="userSpaceOnUse">
<stop stop-color="white" stop-opacity="0"/>
<stop offset="1" stop-color="white" stop-opacity="0.5"/>
</linearGradient>
</defs>
</svg>
