<svg width="21" height="20" viewBox="0 0 21 20" fill="none" xmlns="http://www.w3.org/2000/svg">
<path d="M20.2002 10C20.2002 15.5228 15.723 20 10.2002 20C4.67735 20 0.200195 15.5228 0.200195 10C0.200195 4.47715 4.67735 0 10.2002 0C15.723 0 20.2002 4.47715 20.2002 10ZM4.2002 10C4.2002 13.3137 6.88649 16 10.2002 16C13.5139 16 16.2002 13.3137 16.2002 10C16.2002 6.68629 13.5139 4 10.2002 4C6.88649 4 4.2002 6.68629 4.2002 10Z" fill="#DC2626"/>
<path d="M20.2002 10C20.2002 15.5228 15.723 20 10.2002 20C4.67735 20 0.200195 15.5228 0.200195 10C0.200195 4.47715 4.67735 0 10.2002 0C15.723 0 20.2002 4.47715 20.2002 10ZM4.2002 10C4.2002 13.3137 6.88649 16 10.2002 16C13.5139 16 16.2002 13.3137 16.2002 10C16.2002 6.68629 13.5139 4 10.2002 4C6.88649 4 4.2002 6.68629 4.2002 10Z" fill="url(#paint0_linear_3777_1468)"/>
<defs>
<linearGradient id="paint0_linear_3777_1468" x1="10.2002" y1="20" x2="10.2002" y2="0" gradientUnits="userSpaceOnUse">
<stop stop-color="white" stop-opacity="0"/>
<stop offset="1" stop-color="white" stop-opacity="0.5"/>
</linearGradient>
</defs>
</svg>
