<svg width="20" height="22" viewBox="0 0 20 22" fill="none" xmlns="http://www.w3.org/2000/svg">
<path d="M9.5192 0.684744C9.65724 0.201031 10.3428 0.201031 10.4808 0.684744L12.159 6.56502C12.233 6.8245 12.4996 6.97841 12.7613 6.9128L18.6929 5.42598C19.1808 5.30368 19.5236 5.89735 19.1737 6.25876L14.9203 10.6522C14.7326 10.8461 14.7326 11.1539 14.9203 11.3478L19.1737 15.7412C19.5236 16.1026 19.1808 16.6963 18.6929 16.574L12.7613 15.0872C12.4996 15.0216 12.233 15.1755 12.159 15.435L10.4808 21.3153C10.3428 21.799 9.65724 21.799 9.5192 21.3153L7.84104 15.435C7.76699 15.1755 7.50041 15.0216 7.23867 15.0872L1.30713 16.574C0.819197 16.6963 0.476439 16.1026 0.826325 15.7412L5.07971 11.3478C5.2674 11.1539 5.2674 10.8461 5.07971 10.6522L0.826325 6.25876C0.476439 5.89735 0.819197 5.30368 1.30713 5.42598L7.23867 6.9128C7.50041 6.97841 7.76699 6.8245 7.84104 6.56502L9.5192 0.684744Z" fill="#F59E0B"/>
<path d="M9.5192 0.684744C9.65724 0.201031 10.3428 0.201031 10.4808 0.684744L12.159 6.56502C12.233 6.8245 12.4996 6.97841 12.7613 6.9128L18.6929 5.42598C19.1808 5.30368 19.5236 5.89735 19.1737 6.25876L14.9203 10.6522C14.7326 10.8461 14.7326 11.1539 14.9203 11.3478L19.1737 15.7412C19.5236 16.1026 19.1808 16.6963 18.6929 16.574L12.7613 15.0872C12.4996 15.0216 12.233 15.1755 12.159 15.435L10.4808 21.3153C10.3428 21.799 9.65724 21.799 9.5192 21.3153L7.84104 15.435C7.76699 15.1755 7.50041 15.0216 7.23867 15.0872L1.30713 16.574C0.819197 16.6963 0.476439 16.1026 0.826325 15.7412L5.07971 11.3478C5.2674 11.1539 5.2674 10.8461 5.07971 10.6522L0.826325 6.25876C0.476439 5.89735 0.819197 5.30368 1.30713 5.42598L7.23867 6.9128C7.50041 6.97841 7.76699 6.8245 7.84104 6.56502L9.5192 0.684744Z" fill="url(#paint0_linear_2711_3811)"/>
<defs>
<linearGradient id="paint0_linear_2711_3811" x1="10" y1="23" x2="10" y2="-1" gradientUnits="userSpaceOnUse">
<stop stop-color="white" stop-opacity="0"/>
<stop offset="1" stop-color="white" stop-opacity="0.5"/>
</linearGradient>
</defs>
</svg>
