<svg width="22" height="21" viewBox="0 0 22 21" fill="none" xmlns="http://www.w3.org/2000/svg">
<path d="M10.5152 0.918416C10.6424 0.415075 11.3576 0.415075 11.4848 0.918416L12.8422 6.29046C12.9186 6.59258 13.2497 6.75203 13.5335 6.62334L18.5799 4.33523C19.0527 4.12084 19.4986 4.67997 19.1843 5.09324L15.8307 9.50396C15.6421 9.75201 15.7238 10.1103 16.0014 10.2519L20.9367 12.7708C21.3991 13.0068 21.24 13.704 20.7209 13.716L15.1815 13.844C14.87 13.8512 14.6409 14.1385 14.7032 14.4438L15.811 19.8729C15.9148 20.3815 15.2705 20.6918 14.9375 20.2935L11.3836 16.0425C11.1837 15.8034 10.8163 15.8034 10.6164 16.0425L7.06252 20.2935C6.72954 20.6918 6.08521 20.3815 6.18901 19.8729L7.29682 14.4438C7.35913 14.1385 7.13 13.8512 6.81847 13.844L1.27905 13.716C0.760029 13.704 0.600893 13.0068 1.06331 12.7708L5.99861 10.2519C6.27616 10.1103 6.35793 9.75201 6.16933 9.50396L2.81566 5.09324C2.50143 4.67997 2.94732 4.12084 3.42015 4.33523L8.46654 6.62334C8.75034 6.75203 9.08144 6.59258 9.15778 6.29046L10.5152 0.918416Z" fill="#F80282"/>
<path d="M10.5152 0.918416C10.6424 0.415075 11.3576 0.415075 11.4848 0.918416L12.8422 6.29046C12.9186 6.59258 13.2497 6.75203 13.5335 6.62334L18.5799 4.33523C19.0527 4.12084 19.4986 4.67997 19.1843 5.09324L15.8307 9.50396C15.6421 9.75201 15.7238 10.1103 16.0014 10.2519L20.9367 12.7708C21.3991 13.0068 21.24 13.704 20.7209 13.716L15.1815 13.844C14.87 13.8512 14.6409 14.1385 14.7032 14.4438L15.811 19.8729C15.9148 20.3815 15.2705 20.6918 14.9375 20.2935L11.3836 16.0425C11.1837 15.8034 10.8163 15.8034 10.6164 16.0425L7.06252 20.2935C6.72954 20.6918 6.08521 20.3815 6.18901 19.8729L7.29682 14.4438C7.35913 14.1385 7.13 13.8512 6.81847 13.844L1.27905 13.716C0.760029 13.704 0.600893 13.0068 1.06331 12.7708L5.99861 10.2519C6.27616 10.1103 6.35793 9.75201 6.16933 9.50396L2.81566 5.09324C2.50143 4.67997 2.94732 4.12084 3.42015 4.33523L8.46654 6.62334C8.75034 6.75203 9.08144 6.59258 9.15778 6.29046L10.5152 0.918416Z" fill="url(#paint0_linear_2711_3855)"/>
<defs>
<linearGradient id="paint0_linear_2711_3855" x1="11" y1="23" x2="11" y2="-1" gradientUnits="userSpaceOnUse">
<stop stop-color="white" stop-opacity="0"/>
<stop offset="1" stop-color="white" stop-opacity="0.5"/>
</linearGradient>
</defs>
</svg>
